<?xml version="1.0" standalone="no"?>
<!DOCTYPE svg PUBLIC "-//W3C//DTD SVG 20010904//EN"
 "http://www.w3.org/TR/2001/REC-SVG-20010904/DTD/svg10.dtd">
<svg version="1.0" xmlns="http://www.w3.org/2000/svg"
 width="200.000000pt" height="200.000000pt" viewBox="0 0 200.000000 200.000000"
 preserveAspectRatio="xMidYMid meet">

<g transform="translate(0.000000,200.000000) scale(0.100000,-0.100000)"
fill="#000000" stroke="none">
<path d="M856 1645 c-4 -11 -13 -14 -31 -9 -19 5 -25 2 -25 -11 0 -26 19 -55
42 -64 12 -4 26 -23 32 -42 7 -22 25 -43 50 -59 l39 -25 -53 -8 c-67 -9 -164
-56 -221 -105 -24 -21 -56 -42 -70 -45 -14 -4 -38 -19 -53 -34 -23 -22 -26
-34 -24 -72 3 -41 6 -46 30 -49 18 -2 37 6 60 27 29 26 33 35 33 80 0 41 5 55
29 80 29 30 120 83 166 96 l25 7 -22 -17 c-47 -34 -16 -83 32 -51 26 17 32 45
14 63 -16 16 96 24 171 11 l65 -11 -55 -14 c-71 -17 -128 -57 -165 -115 -21
-32 -37 -47 -52 -47 -26 -1 -66 -37 -60 -54 2 -7 13 -13 24 -15 12 -2 23 -12
26 -24 5 -19 7 -19 28 -4 16 11 26 12 35 5 7 -6 18 -8 24 -4 17 11 11 42 -14
72 -28 33 -24 46 28 101 48 52 101 75 171 76 68 0 116 -20 180 -78 l40 -36
-30 7 c-54 14 -128 7 -172 -15 -23 -12 -51 -22 -61 -22 -29 0 -62 -37 -62 -70
0 -25 4 -30 23 -30 36 0 67 27 67 60 0 35 24 53 91 71 88 24 176 -23 214 -113
l15 -38 133 2 132 2 -128 3 -127 4 -20 42 c-11 24 -45 74 -76 112 -84 105 -96
152 -44 172 35 13 55 51 46 87 -8 32 -27 33 -63 2 -25 -22 -27 -28 -25 -91 2
-37 8 -77 13 -88 6 -10 7 -17 2 -15 -4 2 -37 18 -73 35 -37 19 -101 38 -150
47 -47 8 -97 19 -111 24 -43 17 -91 92 -59 92 19 0 60 48 60 71 0 18 -4 20
-25 15 -18 -5 -27 -2 -31 9 -4 8 -12 15 -19 15 -7 0 -15 -7 -19 -15z m486
-125 c-3 -28 -28 -58 -39 -47 -3 4 -1 13 5 19 7 7 12 17 12 23 -1 5 -10 -1
-20 -14 -17 -20 -20 -21 -20 -5 0 24 30 55 49 51 10 -2 15 -12 13 -27z m-432
-138 c0 -11 -22 -32 -34 -32 -5 0 -1 7 10 16 19 15 18 15 -4 11 -12 -3 -20 -1
-16 4 6 11 44 12 44 1z m-310 -152 c-12 -17 -20 -36 -17 -43 2 -6 17 8 33 33
l29 44 3 -33 c4 -38 -19 -77 -54 -93 -20 -10 -27 -9 -35 3 -16 25 -10 57 17
88 33 40 52 40 24 1z m470 -25 c-19 -23 -3 -31 20 -10 26 24 26 1 0 -25 -40
-40 -71 -10 -33 32 20 22 31 24 13 3z"/>
<path d="M1045 1539 c-9 -29 12 -74 40 -87 21 -10 26 -8 35 8 16 29 12 49 -15
75 -30 30 -51 32 -60 4z m53 -11 c7 -7 12 -19 12 -27 0 -11 -4 -10 -14 5 -18
24 -31 13 -16 -15 6 -12 7 -21 1 -21 -11 0 -21 24 -21 51 0 21 20 25 38 7z"/>
<path d="M916 1531 c-15 -16 -15 -19 -1 -31 20 -16 61 -16 81 1 15 12 14 15
-6 31 -28 23 -53 23 -74 -1z m67 -16 c1 -5 -11 -11 -28 -12 -23 -1 -25 0 -6 4
19 4 21 7 10 14 -11 8 -10 9 4 7 10 -2 19 -7 20 -13z"/>
<path d="M812 1494 c-12 -8 -22 -26 -22 -40 0 -34 43 -33 66 1 29 45 1 71 -44
39z m11 -26 c-4 -23 -4 -23 12 -3 10 11 15 14 13 6 -5 -18 -35 -38 -43 -29 -6
6 11 48 19 48 2 0 2 -10 -1 -22z"/>
<path d="M1173 1482 c-22 -14 14 -54 45 -50 31 4 38 20 17 42 -18 17 -43 20
-62 8z m22 -11 c-3 -6 3 -14 12 -20 10 -6 13 -11 7 -11 -15 0 -36 25 -27 33
10 10 15 8 8 -2z"/>
<path d="M1294 1425 c-9 -22 23 -65 47 -65 27 0 34 25 15 55 -18 28 -53 33
-62 10z m56 -36 c0 -10 -4 -19 -8 -19 -11 0 -32 22 -32 34 0 5 7 1 16 -10 15
-19 15 -18 11 4 -3 12 -1 20 4 16 5 -3 9 -14 9 -25z"/>
<path d="M562 1410 c-36 -15 -39 -40 -8 -67 32 -27 81 -30 114 -7 18 12 20 19
11 35 -6 12 -26 27 -44 35 -39 16 -42 16 -73 4z m84 -25 c18 -15 16 -15 -23
-10 -25 4 -43 3 -43 -3 0 -5 19 -13 43 -17 40 -7 41 -8 16 -16 -31 -11 -77 3
-86 27 -12 33 57 47 93 19z"/>
<path d="M1080 1335 c0 -24 39 -57 63 -53 27 4 33 30 12 52 -21 21 -75 22 -75
1z m60 -6 c12 -8 10 -9 -7 -4 -23 6 -33 -9 -13 -18 6 -3 5 -4 -2 -3 -17 4 -23
36 -6 36 7 0 20 -5 28 -11z"/>
<path d="M706 1274 c-11 -29 -6 -50 18 -74 33 -30 56 -21 56 23 0 52 -58 92
-74 51z m64 -56 c0 -10 -6 -18 -13 -18 -18 0 -37 21 -37 40 1 12 2 12 11 -2
14 -25 33 -23 19 1 -15 29 -12 39 5 17 8 -11 15 -28 15 -38z"/>
<path d="M950 1251 c0 -48 50 -83 64 -45 9 25 7 33 -14 54 -29 29 -50 26 -50
-9z m50 -26 c0 -27 -24 -25 -34 2 -6 14 -4 14 10 2 15 -12 16 -11 9 10 -5 16
-4 21 4 17 6 -4 11 -18 11 -31z"/>
<path d="M1155 1229 c-12 -19 5 -60 31 -71 20 -10 27 -9 35 3 13 21 11 28 -16
54 -26 27 -40 31 -50 14z m55 -46 c0 -19 -32 -13 -37 7 -4 13 -3 13 6 0 5 -8
13 -11 17 -7 4 3 1 15 -7 24 -13 16 -12 17 4 4 9 -7 17 -20 17 -28z"/>
<path d="M35 1156 c-14 -10 -20 -26 -20 -55 0 -38 6 -46 58 -94 31 -29 57 -59
57 -65 0 -13 -36 -52 -48 -52 -18 0 -52 33 -50 48 2 10 -4 17 -12 17 -26 0
-23 -43 4 -70 30 -30 74 -33 107 -6 18 14 24 29 24 61 0 38 -6 46 -58 95 -31
29 -57 58 -57 63 0 13 28 42 40 42 5 0 18 -10 30 -22 15 -16 23 -19 32 -10 8
8 7 17 -6 36 -19 30 -69 35 -101 12z"/>
<path d="M352 1123 c32 -2 84 -2 115 0 32 2 6 3 -57 3 -63 0 -89 -1 -58 -3z"/>
<path d="M1180 1097 c-52 -26 -74 -114 -46 -182 22 -52 87 -74 116 -40 11 14
14 13 25 -1 8 -11 19 -14 33 -10 25 8 30 46 7 46 -12 0 -15 17 -15 94 0 87
-12 129 -26 93 -5 -13 -9 -13 -32 -1 -33 17 -31 17 -62 1z m69 -53 c48 -61 7
-160 -58 -139 -41 13 -49 106 -13 148 22 24 47 21 71 -9z"/>
<path d="M1374 1101 c-2 -2 -4 -22 -4 -43 0 -27 4 -38 15 -38 8 0 15 9 15 20
0 16 7 20 35 20 19 0 35 -2 35 -5 0 -3 -23 -40 -51 -81 -66 -98 -64 -108 28
-112 l71 -3 12 35 c11 35 8 56 -10 56 -4 0 -11 -11 -14 -25 -6 -22 -12 -25
-51 -25 l-45 0 55 81 c31 45 55 89 53 98 -2 12 -19 17 -71 21 -38 3 -71 3 -73
1z"/>
<path d="M213 1093 c-14 -5 -18 -43 -5 -43 4 0 6 -30 4 -68 -3 -57 0 -72 18
-95 23 -29 66 -36 89 -14 11 10 14 10 18 0 3 -7 11 -13 19 -13 11 0 14 23 14
120 0 108 -2 120 -17 120 -28 0 -47 -16 -40 -35 4 -9 11 -13 17 -10 6 4 10
-17 10 -58 0 -49 -4 -68 -18 -80 -23 -21 -56 -22 -72 -2 -12 15 -9 102 5 158
6 22 4 27 -11 26 -11 0 -25 -3 -31 -6z"/>
<path d="M415 1091 c-3 -5 2 -16 10 -24 11 -12 15 -39 15 -111 0 -85 2 -96 18
-96 27 0 46 16 39 35 -4 9 -11 13 -17 10 -6 -4 -10 19 -10 63 0 78 11 95 57
90 40 -4 50 -41 34 -123 -7 -36 -11 -69 -8 -72 13 -12 57 8 57 26 0 11 -4 21
-8 23 -5 2 -6 35 -4 75 5 79 20 95 62 66 20 -14 22 -22 17 -82 -3 -36 -7 -75
-9 -86 -4 -24 21 -30 47 -11 16 12 17 16 6 30 -9 10 -11 28 -7 51 9 47 -2 99
-25 124 -22 23 -78 28 -97 9 -9 -9 -15 -9 -24 0 -16 16 -70 16 -86 0 -9 -9
-12 -9 -12 0 0 14 -46 16 -55 3z"/>
<path d="M770 1086 c0 -7 4 -16 10 -22 5 -5 11 -51 13 -102 2 -51 6 -95 10
-98 3 -3 15 -3 26 1 24 7 28 33 6 41 -21 9 -21 117 1 138 20 20 58 21 74 1 12
-14 11 -37 -2 -155 -4 -29 18 -37 46 -17 16 12 17 16 5 27 -10 9 -13 31 -9 84
l5 71 33 3 c27 3 34 -1 43 -25 10 -27 9 -49 -7 -135 -6 -33 -4 -38 12 -38 31
0 48 16 39 36 -4 11 -8 48 -9 84 -1 82 -22 120 -67 120 -17 0 -39 -5 -50 -11
-14 -7 -24 -7 -32 0 -18 14 -147 12 -147 -3z"/>
<path d="M1599 1074 c-21 -22 -24 -35 -24 -96 0 -64 2 -72 28 -94 76 -65 164
16 143 130 -16 84 -94 116 -147 60z m99 -27 c16 -19 25 -64 18 -91 -22 -87
-116 -67 -116 24 0 48 24 80 59 80 16 0 33 -6 39 -13z"/>
<path d="M1790 1080 c0 -11 5 -20 10 -20 6 0 10 -40 10 -100 0 -104 3 -110 44
-94 20 8 21 33 1 40 -24 10 -20 109 5 134 26 26 66 26 80 1 13 -26 13 -84 -2
-132 -13 -47 -8 -54 29 -42 29 10 45 43 21 43 -10 0 -13 19 -13 74 0 59 -4 78
-19 95 -21 24 -74 28 -95 9 -11 -10 -14 -10 -18 0 -3 6 -16 12 -29 12 -17 0
-24 -6 -24 -20z"/>
<path d="M395 840 l-100 -6 127 -2 128 -2 24 -47 c13 -27 47 -77 76 -112 71
-89 90 -145 53 -158 -50 -17 -78 -74 -55 -111 12 -18 56 0 76 30 14 23 15 115
0 162 -6 18 -5 18 28 -2 50 -31 107 -49 204 -66 93 -17 137 -37 153 -73 15
-32 14 -43 -4 -43 -24 0 -55 -37 -55 -66 0 -21 3 -24 21 -19 13 4 27 1 38 -9
16 -15 20 -15 31 -1 8 9 21 13 36 9 20 -5 24 -2 24 18 0 25 -37 68 -58 68 -7
0 -12 10 -12 23 -1 28 -26 60 -64 79 l-29 15 50 7 c62 8 179 64 230 109 21 20
51 39 65 42 44 11 83 60 83 105 0 22 -6 45 -12 51 -16 16 -56 4 -90 -25 -25
-21 -28 -31 -28 -81 0 -53 -3 -60 -35 -87 -35 -29 -88 -60 -134 -78 -23 -9
-24 -8 -11 17 17 32 12 43 -19 43 -28 0 -52 -19 -61 -47 -5 -18 -2 -23 12 -24
16 0 16 -1 -2 -9 -24 -10 -138 -11 -180 0 -31 7 -25 13 26 24 46 10 123 69
147 114 17 30 30 42 46 42 23 0 66 38 66 58 0 7 -8 12 -19 12 -10 0 -25 10
-33 22 -13 19 -18 21 -31 10 -11 -10 -21 -11 -35 -3 -11 6 -22 7 -26 4 -12
-13 -5 -51 14 -76 26 -33 25 -36 -9 -84 -39 -54 -118 -93 -186 -93 -60 0 -136
34 -181 81 l-29 31 30 -9 c47 -13 110 -7 157 14 23 11 56 24 72 29 61 19 88
104 33 104 -33 -1 -57 -24 -72 -67 -18 -53 -61 -75 -141 -71 -77 5 -119 34
-153 107 -22 46 -27 51 -55 49 -17 -1 -76 -5 -131 -8z m1050 -21 c15 -23 -6
-78 -38 -101 l-31 -23 23 38 c33 54 21 67 -14 16 l-30 -44 -3 35 c-3 28 2 40
27 62 33 29 55 35 66 17z m-485 -18 c0 -21 -14 -42 -34 -53 -21 -11 -21 -11
-2 11 11 11 16 24 13 27 -4 4 -15 -4 -26 -17 -24 -28 -28 -13 -5 19 15 22 54
31 54 13z m149 -207 c-12 -15 -11 -16 11 -10 25 6 25 6 2 -6 -12 -6 -25 -8
-29 -5 -6 6 14 37 24 37 3 0 -1 -7 -8 -16z m-419 -119 c-7 -9 -10 -19 -6 -23
4 -4 14 2 22 12 12 17 14 18 14 3 0 -18 -34 -57 -50 -57 -14 0 -12 54 2 68 17
17 33 15 18 -3z"/>
<path d="M1555 840 l-80 -6 108 -2 c66 -1 107 2 107 8 0 10 -4 10 -135 0z"/>
<path d="M775 800 c-8 -24 9 -56 35 -70 45 -24 57 35 14 69 -33 26 -41 26 -49
1z m46 -17 c13 -17 13 -17 -5 -3 -18 14 -19 13 -14 -8 4 -12 2 -20 -3 -16 -12
7 -12 44 0 44 5 0 15 -8 22 -17z"/>
<path d="M1219 767 c-14 -31 3 -74 37 -89 21 -10 27 -9 35 3 16 25 10 59 -16
84 -30 31 -43 31 -56 2z m45 -13 c9 -8 16 -20 16 -27 0 -6 -6 -2 -14 9 -19 25
-31 12 -15 -18 11 -21 11 -22 -4 -9 -17 14 -22 42 -10 54 9 9 9 9 27 -9z"/>
<path d="M984 756 c-7 -30 9 -63 37 -71 22 -7 39 7 39 33 0 15 -45 62 -59 62
-6 0 -13 -11 -17 -24z m44 -8 c7 -7 12 -16 12 -22 0 -5 -7 -1 -16 10 -15 19
-15 18 -11 -4 3 -12 1 -20 -4 -16 -11 6 -12 44 -1 44 4 0 13 -5 20 -12z"/>
<path d="M830 662 c0 -26 32 -52 63 -52 32 0 37 28 9 53 -26 24 -72 22 -72 -1z
m68 -27 c-3 -3 -9 2 -12 12 -6 14 -5 15 5 6 7 -7 10 -15 7 -18z"/>
<path d="M1338 634 c-35 -18 -35 -25 -2 -58 30 -30 87 -36 119 -12 17 12 18
17 6 40 -13 23 -57 47 -85 46 -6 -1 -23 -8 -38 -16z m99 -28 l28 -24 -28 -11
c-32 -12 -71 -6 -87 14 -9 11 -4 12 25 5 19 -4 37 -4 40 0 6 9 -19 20 -46 20
-10 0 -19 5 -19 10 0 20 59 10 87 -14z"/>
<path d="M635 599 c-11 -17 4 -58 26 -69 45 -25 68 21 29 60 -22 22 -45 26
-55 9z m46 -26 c13 -17 13 -17 -5 -3 -18 14 -19 13 -14 -8 4 -12 2 -20 -3 -16
-12 7 -12 44 0 44 5 0 15 -8 22 -17z"/>
<path d="M763 533 c-21 -8 -15 -31 11 -48 33 -22 72 -5 56 24 -14 26 -40 36
-67 24z m52 -24 c11 -16 1 -19 -13 -3 -7 8 -8 14 -3 14 5 0 13 -5 16 -11z"/>
<path d="M1150 520 c-42 -42 -13 -88 35 -56 32 21 36 76 5 76 -11 0 -29 -9
-40 -20z m40 -7 c-8 -3 -22 -11 -30 -17 -13 -10 -13 -9 -1 7 7 9 21 17 30 16
13 0 14 -1 1 -6z"/>
<path d="M874 496 c-8 -34 3 -64 32 -82 48 -32 74 28 33 80 -26 33 -57 34 -65
2z m66 -53 c0 -13 -4 -23 -9 -23 -16 0 -41 30 -40 48 0 13 3 11 11 -5 12 -25
34 -32 24 -8 -18 44 -18 51 -2 31 9 -11 16 -30 16 -43z"/>
<path d="M1004 465 c-19 -15 -19 -15 5 -35 28 -24 40 -25 69 -4 22 15 22 17 6
35 -21 23 -53 24 -80 4z m49 -25 c11 0 18 -3 14 -6 -11 -11 -58 6 -51 18 6 9
9 9 12 0 2 -7 13 -12 25 -12z"/>
</g>
</svg>
